# Tiled2Unity generated file. Do not modify by hand.
# Wavefront file for 'Cena2_mesh_0004.obj'

# Vertices (Count = 40)
v -5 -2 0
v -6 -2 0
v -6 -1 0
v -5 -1 0
v -6 -2 0
v -7 -2 0
v -7 -1 0
v -6 -1 0
v -5 -3 0
v -6 -3 0
v -6 -2 0
v -5 -2 0
v -6 -3 0
v -7 -3 0
v -7 -2 0
v -6 -2 0
v -5 -4 0
v -6 -4 0
v -6 -3 0
v -5 -3 0
v -6 -4 0
v -7 -4 0
v -7 -3 0
v -6 -3 0
v -2 -7 0
v -3 -7 0
v -3 -6 0
v -2 -6 0
v 0 -9 0
v -1 -9 0
v -1 -8 0
v 0 -8 0
v -2 -10 0
v -3 -10 0
v -3 -9 0
v -2 -9 0
v -4 -10 0
v -5 -10 0
v -5 -9 0
v -4 -9 0

# Texture cooridinates (Count = 22)
vt 0.2 0.1111111
vt 0.225 0.1111111
vt 0.225 0.1388889
vt 0.2 0.1388889
vt 0.25 0.1111111
vt 0.25 0.1388889
vt 0.2 0.08333334
vt 0.225 0.08333334
vt 0.25 0.08333334
vt 0.2 0.05555556
vt 0.225 0.05555556
vt 0.25 0.05555556
vt 0.325 0.6944444
vt 0.35 0.6944444
vt 0.35 0.7222222
vt 0.325 0.7222222
vt 0.175 0.8333333
vt 0.2 0.8333333
vt 0.2 0.8611111
vt 0.175 0.8611111
vt 0.375 0.6944444
vt 0.375 0.7222222

# Normal
vn 0 0 -1

# Mesh description
g Cena2_mesh_0004

# Faces
f 1/1/1 2/2/1 3/3/1 4/4/1
f 5/2/1 6/5/1 7/6/1 8/3/1
f 9/7/1 10/8/1 11/2/1 12/1/1
f 13/8/1 14/9/1 15/5/1 16/2/1
f 17/10/1 18/11/1 19/8/1 20/7/1
f 21/11/1 22/12/1 23/9/1 24/8/1
f 25/13/1 26/14/1 27/15/1 28/16/1
f 29/17/1 30/18/1 31/19/1 32/20/1
f 33/14/1 34/21/1 35/22/1 36/15/1
f 37/14/1 38/21/1 39/22/1 40/15/1

