# Tiled2Unity generated file. Do not modify by hand.
# Wavefront file for 'Cena2_mesh_0003.obj'

# Vertices (Count = 104)
v 0 -1 0
v -1 -1 0
v -1 0 0
v 0 0 0
v -1 -1 0
v -2 -1 0
v -2 0 0
v -1 0 0
v -3 -1 0
v -4 -1 0
v -4 0 0
v -3 0 0
v -4 -1 0
v -5 -1 0
v -5 0 0
v -4 0 0
v -5 -1 0
v -6 -1 0
v -6 0 0
v -5 0 0
v -6 -1 0
v -7 -1 0
v -7 0 0
v -6 0 0
v -7 -1 0
v -8 -1 0
v -8 0 0
v -7 0 0
v -8 -1 0
v -9 -1 0
v -9 0 0
v -8 0 0
v -9 -1 0
v -10 -1 0
v -10 0 0
v -9 0 0
v 0 -2 0
v -1 -2 0
v -1 -1 0
v 0 -1 0
v -1 -2 0
v -2 -2 0
v -2 -1 0
v -1 -1 0
v -3 -2 0
v -4 -2 0
v -4 -1 0
v -3 -1 0
v -4 -2 0
v -5 -2 0
v -5 -1 0
v -4 -1 0
v -5 -2 0
v -6 -2 0
v -6 -1 0
v -5 -1 0
v -6 -2 0
v -7 -2 0
v -7 -1 0
v -6 -1 0
v -7 -2 0
v -8 -2 0
v -8 -1 0
v -7 -1 0
v -8 -2 0
v -9 -2 0
v -9 -1 0
v -8 -1 0
v -9 -2 0
v -10 -2 0
v -10 -1 0
v -9 -1 0
v 0 -3 0
v -1 -3 0
v -1 -2 0
v 0 -2 0
v -9 -3 0
v -10 -3 0
v -10 -2 0
v -9 -2 0
v 0 -4 0
v -1 -4 0
v -1 -3 0
v 0 -3 0
v -9 -4 0
v -10 -4 0
v -10 -3 0
v -9 -3 0
v 0 -5 0
v -1 -5 0
v -1 -4 0
v 0 -4 0
v 0 -6 0
v -1 -6 0
v -1 -5 0
v 0 -5 0
v 0 -7 0
v -1 -7 0
v -1 -6 0
v 0 -6 0
v 0 -8 0
v -1 -8 0
v -1 -7 0
v 0 -7 0

# Texture cooridinates (Count = 18)
vt 0.125 0.5277778
vt 0.15 0.5277778
vt 0.15 0.5555556
vt 0.125 0.5555556
vt 0.175 0.4722222
vt 0.2 0.4722222
vt 0.2 0.5
vt 0.175 0.5
vt 0.15 0.4722222
vt 0.15 0.5
vt 0.175 0.5277778
vt 0.2 0.5277778
vt 0.2 0.5555556
vt 0.175 0.5555556
vt 0.125 0.4722222
vt 0.125 0.5
vt 0.125 0.4444444
vt 0.15 0.4444444

# Normal
vn 0 0 -1

# Mesh description
g Cena2_mesh_0003

# Faces
f 1/1/1 2/2/1 3/3/1 4/4/1
f 5/5/1 6/6/1 7/7/1 8/8/1
f 9/9/1 10/5/1 11/8/1 12/10/1
f 13/11/1 14/12/1 15/13/1 16/14/1
f 17/8/1 18/7/1 19/12/1 20/11/1
f 21/15/1 22/9/1 23/10/1 24/16/1
f 25/11/1 26/12/1 27/13/1 28/14/1
f 29/8/1 30/7/1 31/12/1 32/11/1
f 33/2/1 34/11/1 35/14/1 36/3/1
f 37/11/1 38/12/1 39/13/1 40/14/1
f 41/10/1 42/8/1 43/11/1 44/2/1
f 45/16/1 46/10/1 47/2/1 48/1/1
f 49/17/1 50/18/1 51/9/1 52/15/1
f 53/17/1 54/18/1 55/9/1 56/15/1
f 57/17/1 58/18/1 59/9/1 60/15/1
f 61/17/1 62/18/1 63/9/1 64/15/1
f 65/17/1 66/18/1 67/9/1 68/15/1
f 69/8/1 70/7/1 71/12/1 72/11/1
f 73/5/1 74/6/1 75/7/1 76/8/1
f 77/9/1 78/5/1 79/8/1 80/10/1
f 81/5/1 82/6/1 83/7/1 84/8/1
f 85/16/1 86/10/1 87/2/1 88/1/1
f 89/5/1 90/6/1 91/7/1 92/8/1
f 93/5/1 94/6/1 95/7/1 96/8/1
f 97/5/1 98/6/1 99/7/1 100/8/1
f 101/10/1 102/8/1 103/11/1 104/2/1

