# Tiled2Unity generated file. Do not modify by hand.
# Wavefront file for 'GardenVillageHouse01_mesh_0005.obj'

# Vertices (Count = 120)
v -2 -1 0
v -3 -1 0
v -3 0 0
v -2 0 0
v -2 -2 0
v -3 -2 0
v -3 -1 0
v -2 -1 0
v -4 -2 0
v -5 -2 0
v -5 -1 0
v -4 -1 0
v -5 -2 0
v -6 -2 0
v -6 -1 0
v -5 -1 0
v -6 -2 0
v -7 -2 0
v -7 -1 0
v -6 -1 0
v -7 -2 0
v -8 -2 0
v -8 -1 0
v -7 -1 0
v -2 -3 0
v -3 -3 0
v -3 -2 0
v -2 -2 0
v -3 -3 0
v -4 -3 0
v -4 -2 0
v -3 -2 0
v -4 -3 0
v -5 -3 0
v -5 -2 0
v -4 -2 0
v -7 -3 0
v -8 -3 0
v -8 -2 0
v -7 -2 0
v 0 -4 0
v -1 -4 0
v -1 -3 0
v 0 -3 0
v -1 -4 0
v -2 -4 0
v -2 -3 0
v -1 -3 0
v -3 -4 0
v -4 -4 0
v -4 -3 0
v -3 -3 0
v -4 -4 0
v -5 -4 0
v -5 -3 0
v -4 -3 0
v -7 -4 0
v -8 -4 0
v -8 -3 0
v -7 -3 0
v -4 -5 0
v -5 -5 0
v -5 -4 0
v -4 -4 0
v -7 -5 0
v -8 -5 0
v -8 -4 0
v -7 -4 0
v -7 -6 0
v -8 -6 0
v -8 -5 0
v -7 -5 0
v -2 -7 0
v -3 -7 0
v -3 -6 0
v -2 -6 0
v -7 -7 0
v -8 -7 0
v -8 -6 0
v -7 -6 0
v -2 -8 0
v -3 -8 0
v -3 -7 0
v -2 -7 0
v -7 -8 0
v -8 -8 0
v -8 -7 0
v -7 -7 0
v -2 -9 0
v -3 -9 0
v -3 -8 0
v -2 -8 0
v -3 -9 0
v -4 -9 0
v -4 -8 0
v -3 -8 0
v -6 -9 0
v -7 -9 0
v -7 -8 0
v -6 -8 0
v -7 -9 0
v -8 -9 0
v -8 -8 0
v -7 -8 0
v -2 -10 0
v -3 -10 0
v -3 -9 0
v -2 -9 0
v -3 -10 0
v -4 -10 0
v -4 -9 0
v -3 -9 0
v -6 -10 0
v -7 -10 0
v -7 -9 0
v -6 -9 0
v -7 -10 0
v -8 -10 0
v -8 -9 0
v -7 -9 0

# Texture cooridinates (Count = 68)
vt 0.275 0.8
vt 0.3 0.8
vt 0.3 0.84
vt 0.275 0.84
vt 0.275 0.76
vt 0.3 0.76
vt 0.25 0.56
vt 0.275 0.56
vt 0.275 0.6
vt 0.25 0.6
vt 0.225 0.64
vt 0.25 0.64
vt 0.25 0.68
vt 0.225 0.68
vt 0.225 0.56
vt 0.225 0.6
vt 0.4 0.92
vt 0.425 0.92
vt 0.425 0.96
vt 0.4 0.96
vt 0.3 0.56
vt 0.3 0.6
vt 0.325 0.6
vt 0.35 0.6
vt 0.35 0.64
vt 0.325 0.64
vt 0.45 0.8
vt 0.475 0.8
vt 0.475 0.84
vt 0.45 0.84
vt 0.4 0.88
vt 0.425 0.88
vt 0.1 0.6
vt 0.1 0.56
vt 0.125 0.56
vt 0.125 0.6
vt 0.1 0.52
vt 0.125 0.52
vt 0.2 0.64
vt 0.2 0.68
vt 0.45 0.76
vt 0.475 0.76
vt 0.4 0.84
vt 0.425 0.84
vt 0.45 0.72
vt 0.475 0.72
vt 0.15 0.48
vt 0.175 0.48
vt 0.175 0.52
vt 0.15 0.52
vt 0.15 0.44
vt 0.175 0.44
vt 0.2 0.48
vt 0.225 0.48
vt 0.225 0.52
vt 0.2 0.52
vt 0.15 0.4
vt 0.175 0.4
vt 0.2 0.44
vt 0.225 0.44
vt 0.15 0.36
vt 0.175 0.36
vt 0.225 0.8
vt 0.25 0.8
vt 0.25 0.84
vt 0.225 0.84
vt 0.225 0.76
vt 0.25 0.76

# Normal
vn 0 0 -1

# Mesh description
g GardenVillageHouse01_mesh_0005

# Faces
f 1/1/1 2/2/1 3/3/1 4/4/1
f 5/5/1 6/6/1 7/2/1 8/1/1
f 9/7/1 10/8/1 11/9/1 12/10/1
f 13/11/1 14/12/1 15/13/1 16/14/1
f 17/15/1 18/7/1 19/10/1 20/16/1
f 21/17/1 22/18/1 23/19/1 24/20/1
f 25/8/1 26/21/1 27/22/1 28/9/1
f 29/23/1 30/24/1 31/25/1 32/26/1
f 33/27/1 34/28/1 35/29/1 36/30/1
f 37/31/1 38/32/1 39/18/1 40/17/1
f 41/33/1 42/34/1 43/35/1 44/36/1
f 45/34/1 46/37/1 47/38/1 48/35/1
f 49/39/1 50/11/1 51/14/1 52/40/1
f 53/41/1 54/42/1 55/28/1 56/27/1
f 57/43/1 58/44/1 59/32/1 60/31/1
f 61/45/1 62/46/1 63/42/1 64/41/1
f 65/47/1 66/48/1 67/49/1 68/50/1
f 69/51/1 70/52/1 71/48/1 72/47/1
f 73/53/1 74/54/1 75/55/1 76/56/1
f 77/57/1 78/58/1 79/52/1 80/51/1
f 81/59/1 82/60/1 83/54/1 84/53/1
f 85/61/1 86/62/1 87/58/1 88/57/1
f 89/63/1 90/64/1 91/65/1 92/66/1
f 93/64/1 94/1/1 95/4/1 96/65/1
f 97/63/1 98/64/1 99/65/1 100/66/1
f 101/64/1 102/1/1 103/4/1 104/65/1
f 105/67/1 106/68/1 107/64/1 108/63/1
f 109/68/1 110/5/1 111/1/1 112/64/1
f 113/67/1 114/68/1 115/64/1 116/63/1
f 117/68/1 118/5/1 119/1/1 120/64/1

