# Tiled2Unity generated file. Do not modify by hand.
# Wavefront file for 'GardenVillageHouse01_mesh_0003.obj'

# Vertices (Count = 120)
v -9 -3 0
v -10 -3 0
v -10 -2 0
v -9 -2 0
v -3 -4 0
v -4 -4 0
v -4 -3 0
v -3 -3 0
v -4 -4 0
v -5 -4 0
v -5 -3 0
v -4 -3 0
v -5 -4 0
v -6 -4 0
v -6 -3 0
v -5 -3 0
v -6 -4 0
v -7 -4 0
v -7 -3 0
v -6 -3 0
v -9 -4 0
v -10 -4 0
v -10 -3 0
v -9 -3 0
v -3 -5 0
v -4 -5 0
v -4 -4 0
v -3 -4 0
v -4 -5 0
v -5 -5 0
v -5 -4 0
v -4 -4 0
v -5 -5 0
v -6 -5 0
v -6 -4 0
v -5 -4 0
v -6 -5 0
v -7 -5 0
v -7 -4 0
v -6 -4 0
v 0 -6 0
v -1 -6 0
v -1 -5 0
v 0 -5 0
v -1 -6 0
v -2 -6 0
v -2 -5 0
v -1 -5 0
v -3 -6 0
v -4 -6 0
v -4 -5 0
v -3 -5 0
v -4 -6 0
v -5 -6 0
v -5 -5 0
v -4 -5 0
v -5 -6 0
v -6 -6 0
v -6 -5 0
v -5 -5 0
v -6 -6 0
v -7 -6 0
v -7 -5 0
v -6 -5 0
v -8 -6 0
v -9 -6 0
v -9 -5 0
v -8 -5 0
v -9 -6 0
v -10 -6 0
v -10 -5 0
v -9 -5 0
v -3 -7 0
v -4 -7 0
v -4 -6 0
v -3 -6 0
v -4 -7 0
v -5 -7 0
v -5 -6 0
v -4 -6 0
v -5 -7 0
v -6 -7 0
v -6 -6 0
v -5 -6 0
v -6 -7 0
v -7 -7 0
v -7 -6 0
v -6 -6 0
v -3 -8 0
v -4 -8 0
v -4 -7 0
v -3 -7 0
v -4 -8 0
v -5 -8 0
v -5 -7 0
v -4 -7 0
v -5 -8 0
v -6 -8 0
v -6 -7 0
v -5 -7 0
v -6 -8 0
v -7 -8 0
v -7 -7 0
v -6 -7 0
v -4 -9 0
v -5 -9 0
v -5 -8 0
v -4 -8 0
v -5 -9 0
v -6 -9 0
v -6 -8 0
v -5 -8 0
v -4 -10 0
v -5 -10 0
v -5 -9 0
v -4 -9 0
v -5 -10 0
v -6 -10 0
v -6 -9 0
v -5 -9 0

# Texture cooridinates (Count = 43)
vt 0.375 0.96
vt 0.375 1
vt 0.35 1
vt 0.35 0.96
vt 0 0.68
vt 0.025 0.68
vt 0.025 0.72
vt 0 0.72
vt 0.05 0.68
vt 0.05 0.72
vt 0.075 0.68
vt 0.075 0.72
vt 0.4 0.96
vt 0.4 1
vt 0 0.64
vt 0.025 0.64
vt 0.05 0.64
vt 0.075 0.64
vt 0.1 0.4
vt 0.1 0.36
vt 0.125 0.36
vt 0.125 0.4
vt 0.1 0.32
vt 0.125 0.32
vt 0.25 0.92
vt 0.25 0.96
vt 0.225 0.96
vt 0.225 0.92
vt 0.25 1
vt 0.225 1
vt 0 0.6
vt 0.025 0.6
vt 0.05 0.6
vt 0.075 0.6
vt 0 0.36
vt 0.025 0.36
vt 0.025 0.4
vt 0 0.4
vt 0.05 0.36
vt 0.05 0.4
vt 0 0.32
vt 0.025 0.32
vt 0.05 0.32

# Normal
vn 0 0 -1

# Mesh description
g GardenVillageHouse01_mesh_0003

# Faces
f 1/1/1 2/2/1 3/3/1 4/4/1
f 5/5/1 6/6/1 7/7/1 8/8/1
f 9/6/1 10/9/1 11/10/1 12/7/1
f 13/6/1 14/9/1 15/10/1 16/7/1
f 17/9/1 18/11/1 19/12/1 20/10/1
f 21/13/1 22/14/1 23/2/1 24/1/1
f 25/15/1 26/16/1 27/6/1 28/5/1
f 29/16/1 30/17/1 31/9/1 32/6/1
f 33/16/1 34/17/1 35/9/1 36/6/1
f 37/17/1 38/18/1 39/11/1 40/9/1
f 41/19/1 42/20/1 43/21/1 44/22/1
f 45/20/1 46/23/1 47/24/1 48/21/1
f 49/15/1 50/16/1 51/6/1 52/5/1
f 53/16/1 54/17/1 55/9/1 56/6/1
f 57/16/1 58/17/1 59/9/1 60/6/1
f 61/17/1 62/18/1 63/11/1 64/9/1
f 65/25/1 66/26/1 67/27/1 68/28/1
f 69/26/1 70/29/1 71/30/1 72/27/1
f 73/15/1 74/16/1 75/6/1 76/5/1
f 77/16/1 78/17/1 79/9/1 80/6/1
f 81/16/1 82/17/1 83/9/1 84/6/1
f 85/17/1 86/18/1 87/11/1 88/9/1
f 89/31/1 90/32/1 91/16/1 92/15/1
f 93/32/1 94/33/1 95/17/1 96/16/1
f 97/32/1 98/33/1 99/17/1 100/16/1
f 101/33/1 102/34/1 103/18/1 104/17/1
f 105/35/1 106/36/1 107/37/1 108/38/1
f 109/36/1 110/39/1 111/40/1 112/37/1
f 113/41/1 114/42/1 115/36/1 116/35/1
f 117/42/1 118/43/1 119/39/1 120/36/1

