# Tiled2Unity generated file. Do not modify by hand.
# Wavefront file for 'CenaInicial_mesh_0005.obj'

# Vertices (Count = 132)
v -7 -5 0
v -8 -5 0
v -8 -4 0
v -7 -4 0
v -9 -5 0
v -10 -5 0
v -10 -4 0
v -9 -4 0
v -11 -5 0
v -12 -5 0
v -12 -4 0
v -11 -4 0
v -12 -5 0
v -13 -5 0
v -13 -4 0
v -12 -4 0
v -6 -6 0
v -7 -6 0
v -7 -5 0
v -6 -5 0
v -9 -6 0
v -10 -6 0
v -10 -5 0
v -9 -5 0
v -10 -6 0
v -11 -6 0
v -11 -5 0
v -10 -5 0
v -1 -7 0
v -2 -7 0
v -2 -6 0
v -1 -6 0
v -2 -7 0
v -3 -7 0
v -3 -6 0
v -2 -6 0
v -3 -7 0
v -4 -7 0
v -4 -6 0
v -3 -6 0
v -4 -7 0
v -5 -7 0
v -5 -6 0
v -4 -6 0
v -5 -7 0
v -6 -7 0
v -6 -6 0
v -5 -6 0
v -6 -7 0
v -7 -7 0
v -7 -6 0
v -6 -6 0
v -1 -8 0
v -2 -8 0
v -2 -7 0
v -1 -7 0
v -4 -8 0
v -5 -8 0
v -5 -7 0
v -4 -7 0
v -5 -8 0
v -6 -8 0
v -6 -7 0
v -5 -7 0
v -4 -9 0
v -5 -9 0
v -5 -8 0
v -4 -8 0
v -5 -9 0
v -6 -9 0
v -6 -8 0
v -5 -8 0
v -2 -10 0
v -3 -10 0
v -3 -9 0
v -2 -9 0
v -3 -10 0
v -4 -10 0
v -4 -9 0
v -3 -9 0
v -10 -10 0
v -11 -10 0
v -11 -9 0
v -10 -9 0
v -11 -10 0
v -12 -10 0
v -12 -9 0
v -11 -9 0
v -2 -11 0
v -3 -11 0
v -3 -10 0
v -2 -10 0
v -3 -11 0
v -4 -11 0
v -4 -10 0
v -3 -10 0
v -8 -11 0
v -9 -11 0
v -9 -10 0
v -8 -10 0
v -10 -11 0
v -11 -11 0
v -11 -10 0
v -10 -10 0
v -11 -11 0
v -12 -11 0
v -12 -10 0
v -11 -10 0
v -2 -12 0
v -3 -12 0
v -3 -11 0
v -2 -11 0
v -3 -12 0
v -4 -12 0
v -4 -11 0
v -3 -11 0
v -7 -12 0
v -8 -12 0
v -8 -11 0
v -7 -11 0
v -13 -12 0
v -14 -12 0
v -14 -11 0
v -13 -11 0
v -13 -13 0
v -14 -13 0
v -14 -12 0
v -13 -12 0
v -13 -14 0
v -14 -14 0
v -14 -13 0
v -13 -13 0

# Texture cooridinates (Count = 60)
vt 0.825 0.9166667
vt 0.85 0.9166667
vt 0.85 0.9444444
vt 0.825 0.9444444
vt 0.8 0.9444444
vt 0.825 0.9722222
vt 0.8 0.9722222
vt 0.25 0.8333333
vt 0.275 0.8333333
vt 0.275 0.8611111
vt 0.25 0.8611111
vt 0 0.5
vt 0.025 0.5
vt 0.025 0.5277778
vt 0 0.5277778
vt 0.8 0.9166667
vt 0.875 0.9166667
vt 0.875 0.9444444
vt 0 0.4444444
vt 0.025 0.4444444
vt 0.025 0.4722222
vt 0 0.4722222
vt 0.1 0.5
vt 0.125 0.5
vt 0.125 0.5277778
vt 0.1 0.5277778
vt 0.075 0.4722222
vt 0.1 0.4722222
vt 0.075 0.5
vt 0.175 0.8333333
vt 0.2 0.8333333
vt 0.2 0.8611111
vt 0.175 0.8611111
vt 0.9 0.9444444
vt 0.9 0.9722222
vt 0.875 0.9722222
vt 0.275 0.1944444
vt 0.3 0.1944444
vt 0.3 0.2222222
vt 0.275 0.2222222
vt 0.325 0.1944444
vt 0.325 0.2222222
vt 0.775 0.8888889
vt 0.8 0.8888889
vt 0.775 0.9166667
vt 0.825 0.8888889
vt 0.225 0.2222222
vt 0.25 0.2222222
vt 0.25 0.25
vt 0.225 0.25
vt 0.275 0.25
vt 0.775 0.8611111
vt 0.8 0.8611111
vt 0.825 0.8611111
vt 0.225 0.1944444
vt 0.25 0.1944444
vt 0.85 0.9722222
vt 0.85 1
vt 0.825 1
vt 0.875 1

# Normal
vn 0 0 -1

# Mesh description
g CenaInicial_mesh_0005

# Faces
f 1/1/1 2/2/1 3/3/1 4/4/1
f 5/5/1 6/4/1 7/6/1 8/7/1
f 9/8/1 10/9/1 11/10/1 12/11/1
f 13/8/1 14/9/1 15/10/1 16/11/1
f 17/12/1 18/13/1 19/14/1 20/15/1
f 21/16/1 22/1/1 23/4/1 24/5/1
f 25/2/1 26/17/1 27/18/1 28/3/1
f 29/19/1 30/20/1 31/21/1 32/22/1
f 33/23/1 34/24/1 35/25/1 36/26/1
f 37/23/1 38/24/1 39/25/1 40/26/1
f 41/23/1 42/24/1 43/25/1 44/26/1
f 45/23/1 46/24/1 47/25/1 48/26/1
f 49/27/1 50/28/1 51/23/1 52/29/1
f 53/30/1 54/31/1 55/32/1 56/33/1
f 57/18/1 58/34/1 59/35/1 60/36/1
f 61/18/1 62/34/1 63/35/1 64/36/1
f 65/37/1 66/38/1 67/39/1 68/40/1
f 69/38/1 70/41/1 71/42/1 72/39/1
f 73/43/1 74/44/1 75/16/1 76/45/1
f 77/44/1 78/46/1 79/1/1 80/16/1
f 81/47/1 82/48/1 83/49/1 84/50/1
f 85/48/1 86/40/1 87/51/1 88/49/1
f 89/52/1 90/53/1 91/44/1 92/43/1
f 93/53/1 94/54/1 95/46/1 96/44/1
f 97/30/1 98/31/1 99/32/1 100/33/1
f 101/55/1 102/56/1 103/48/1 104/47/1
f 105/56/1 106/37/1 107/40/1 108/48/1
f 109/37/1 110/38/1 111/39/1 112/40/1
f 113/38/1 114/41/1 115/42/1 116/39/1
f 117/30/1 118/31/1 119/32/1 120/33/1
f 121/6/1 122/57/1 123/58/1 124/59/1
f 125/57/1 126/36/1 127/60/1 128/58/1
f 129/3/1 130/18/1 131/36/1 132/57/1

