# Tiled2Unity generated file. Do not modify by hand.
# Wavefront file for 'CenaCasa1_mesh_0003.obj'

# Vertices (Count = 52)
v -4 -2 0
v -5 -2 0
v -5 -1 0
v -4 -1 0
v -5 -2 0
v -6 -2 0
v -6 -1 0
v -5 -1 0
v -4 -3 0
v -5 -3 0
v -5 -2 0
v -4 -2 0
v -5 -3 0
v -6 -3 0
v -6 -2 0
v -5 -2 0
v -6 -3 0
v -7 -3 0
v -7 -2 0
v -6 -2 0
v -1 -4 0
v -2 -4 0
v -2 -3 0
v -1 -3 0
v -2 -4 0
v -3 -4 0
v -3 -3 0
v -2 -3 0
v -4 -4 0
v -5 -4 0
v -5 -3 0
v -4 -3 0
v -5 -4 0
v -6 -4 0
v -6 -3 0
v -5 -3 0
v -6 -4 0
v -7 -4 0
v -7 -3 0
v -6 -3 0
v -1 -5 0
v -2 -5 0
v -2 -4 0
v -1 -4 0
v -2 -5 0
v -3 -5 0
v -3 -4 0
v -2 -4 0
v -6 -5 0
v -7 -5 0
v -7 -4 0
v -6 -4 0

# Texture cooridinates (Count = 40)
vt 0.15 0.6
vt 0.175 0.6
vt 0.175 0.64
vt 0.15 0.64
vt 0.2 0.6
vt 0.225 0.6
vt 0.225 0.64
vt 0.2 0.64
vt 0.15 0.56
vt 0.175 0.56
vt 0.2 0.56
vt 0.225 0.56
vt 0.475 0.92
vt 0.5 0.92
vt 0.5 0.96
vt 0.475 0.96
vt 0.325 0.92
vt 0.35 0.92
vt 0.35 0.96
vt 0.325 0.96
vt 0.375 0.92
vt 0.4 0.92
vt 0.4 0.96
vt 0.375 0.96
vt 0.15 0.52
vt 0.175 0.52
vt 0.2 0.52
vt 0.225 0.52
vt 0.475 0.88
vt 0.5 0.88
vt 0.325 0.84
vt 0.35 0.84
vt 0.35 0.88
vt 0.325 0.88
vt 0.375 0.84
vt 0.4 0.84
vt 0.4 0.88
vt 0.375 0.88
vt 0.475 0.84
vt 0.5 0.84

# Normal
vn 0 0 -1

# Mesh description
g CenaCasa1_mesh_0003

# Faces
f 1/1/1 2/2/1 3/3/1 4/4/1
f 5/5/1 6/6/1 7/7/1 8/8/1
f 9/9/1 10/10/1 11/2/1 12/1/1
f 13/11/1 14/12/1 15/6/1 16/5/1
f 17/13/1 18/14/1 19/15/1 20/16/1
f 21/17/1 22/18/1 23/19/1 24/20/1
f 25/21/1 26/22/1 27/23/1 28/24/1
f 29/25/1 30/26/1 31/10/1 32/9/1
f 33/27/1 34/28/1 35/12/1 36/11/1
f 37/29/1 38/30/1 39/14/1 40/13/1
f 41/31/1 42/32/1 43/33/1 44/34/1
f 45/35/1 46/36/1 47/37/1 48/38/1
f 49/39/1 50/40/1 51/30/1 52/29/1

