# Tiled2Unity generated file. Do not modify by hand.
# Wavefront file for 'GardenVillage01_mesh_0002.obj'

# Vertices (Count = 348)
v 0 -4 0
v -1 -4 0
v -1 -3 0
v 0 -3 0
v -1 -4 0
v -2 -4 0
v -2 -3 0
v -1 -3 0
v 0 -5 0
v -1 -5 0
v -1 -4 0
v 0 -4 0
v -1 -5 0
v -2 -5 0
v -2 -4 0
v -1 -4 0
v 0 -6 0
v -1 -6 0
v -1 -5 0
v 0 -5 0
v -3 -6 0
v -4 -6 0
v -4 -5 0
v -3 -5 0
v -4 -6 0
v -5 -6 0
v -5 -5 0
v -4 -5 0
v -5 -6 0
v -6 -6 0
v -6 -5 0
v -5 -5 0
v 0 -7 0
v -1 -7 0
v -1 -6 0
v 0 -6 0
v -3 -7 0
v -4 -7 0
v -4 -6 0
v -3 -6 0
v -4 -7 0
v -5 -7 0
v -5 -6 0
v -4 -6 0
v -5 -7 0
v -6 -7 0
v -6 -6 0
v -5 -6 0
v 0 -8 0
v -1 -8 0
v -1 -7 0
v 0 -7 0
v -3 -8 0
v -4 -8 0
v -4 -7 0
v -3 -7 0
v -4 -8 0
v -5 -8 0
v -5 -7 0
v -4 -7 0
v -5 -8 0
v -6 -8 0
v -6 -7 0
v -5 -7 0
v -6 -8 0
v -7 -8 0
v -7 -7 0
v -6 -7 0
v -7 -8 0
v -8 -8 0
v -8 -7 0
v -7 -7 0
v 0 -9 0
v -1 -9 0
v -1 -8 0
v 0 -8 0
v -3 -9 0
v -4 -9 0
v -4 -8 0
v -3 -8 0
v -4 -9 0
v -5 -9 0
v -5 -8 0
v -4 -8 0
v -5 -9 0
v -6 -9 0
v -6 -8 0
v -5 -8 0
v -6 -9 0
v -7 -9 0
v -7 -8 0
v -6 -8 0
v -7 -9 0
v -8 -9 0
v -8 -8 0
v -7 -8 0
v 0 -10 0
v -1 -10 0
v -1 -9 0
v 0 -9 0
v -5 -10 0
v -6 -10 0
v -6 -9 0
v -5 -9 0
v -6 -10 0
v -7 -10 0
v -7 -9 0
v -6 -9 0
v -10 -10 0
v -11 -10 0
v -11 -9 0
v -10 -9 0
v -11 -10 0
v -12 -10 0
v -12 -9 0
v -11 -9 0
v -12 -10 0
v -13 -10 0
v -13 -9 0
v -12 -9 0
v -13 -10 0
v -14 -10 0
v -14 -9 0
v -13 -9 0
v 0 -11 0
v -1 -11 0
v -1 -10 0
v 0 -10 0
v -10 -11 0
v -11 -11 0
v -11 -10 0
v -10 -10 0
v -11 -11 0
v -12 -11 0
v -12 -10 0
v -11 -10 0
v -12 -11 0
v -13 -11 0
v -13 -10 0
v -12 -10 0
v -13 -11 0
v -14 -11 0
v -14 -10 0
v -13 -10 0
v 0 -12 0
v -1 -12 0
v -1 -11 0
v 0 -11 0
v -15 -12 0
v -16 -12 0
v -16 -11 0
v -15 -11 0
v -16 -12 0
v -17 -12 0
v -17 -11 0
v -16 -11 0
v -17 -12 0
v -18 -12 0
v -18 -11 0
v -17 -11 0
v -18 -12 0
v -19 -12 0
v -19 -11 0
v -18 -11 0
v -5 -13 0
v -6 -13 0
v -6 -12 0
v -5 -12 0
v -6 -13 0
v -7 -13 0
v -7 -12 0
v -6 -12 0
v -15 -13 0
v -16 -13 0
v -16 -12 0
v -15 -12 0
v -16 -13 0
v -17 -13 0
v -17 -12 0
v -16 -12 0
v -17 -13 0
v -18 -13 0
v -18 -12 0
v -17 -12 0
v -18 -13 0
v -19 -13 0
v -19 -12 0
v -18 -12 0
v -5 -14 0
v -6 -14 0
v -6 -13 0
v -5 -13 0
v -6 -14 0
v -7 -14 0
v -7 -13 0
v -6 -13 0
v -16 -14 0
v -17 -14 0
v -17 -13 0
v -16 -13 0
v -17 -14 0
v -18 -14 0
v -18 -13 0
v -17 -13 0
v -18 -14 0
v -19 -14 0
v -19 -13 0
v -18 -13 0
v -19 -14 0
v -20 -14 0
v -20 -13 0
v -19 -13 0
v -1 -15 0
v -2 -15 0
v -2 -14 0
v -1 -14 0
v -5 -15 0
v -6 -15 0
v -6 -14 0
v -5 -14 0
v -6 -15 0
v -7 -15 0
v -7 -14 0
v -6 -14 0
v -9 -15 0
v -10 -15 0
v -10 -14 0
v -9 -14 0
v -10 -15 0
v -11 -15 0
v -11 -14 0
v -10 -14 0
v -11 -15 0
v -12 -15 0
v -12 -14 0
v -11 -14 0
v -16 -15 0
v -17 -15 0
v -17 -14 0
v -16 -14 0
v -17 -15 0
v -18 -15 0
v -18 -14 0
v -17 -14 0
v -18 -15 0
v -19 -15 0
v -19 -14 0
v -18 -14 0
v -19 -15 0
v -20 -15 0
v -20 -14 0
v -19 -14 0
v -5 -16 0
v -6 -16 0
v -6 -15 0
v -5 -15 0
v -6 -16 0
v -7 -16 0
v -7 -15 0
v -6 -15 0
v -9 -16 0
v -10 -16 0
v -10 -15 0
v -9 -15 0
v -10 -16 0
v -11 -16 0
v -11 -15 0
v -10 -15 0
v -16 -16 0
v -17 -16 0
v -17 -15 0
v -16 -15 0
v -17 -16 0
v -18 -16 0
v -18 -15 0
v -17 -15 0
v -18 -16 0
v -19 -16 0
v -19 -15 0
v -18 -15 0
v -19 -16 0
v -20 -16 0
v -20 -15 0
v -19 -15 0
v -2 -17 0
v -3 -17 0
v -3 -16 0
v -2 -16 0
v -10 -17 0
v -11 -17 0
v -11 -16 0
v -10 -16 0
v -10 -18 0
v -11 -18 0
v -11 -17 0
v -10 -17 0
v -11 -18 0
v -12 -18 0
v -12 -17 0
v -11 -17 0
v -12 -18 0
v -13 -18 0
v -13 -17 0
v -12 -17 0
v -6 -19 0
v -7 -19 0
v -7 -18 0
v -6 -18 0
v -7 -19 0
v -8 -19 0
v -8 -18 0
v -7 -18 0
v -10 -19 0
v -11 -19 0
v -11 -18 0
v -10 -18 0
v -11 -19 0
v -12 -19 0
v -12 -18 0
v -11 -18 0
v -12 -19 0
v -13 -19 0
v -13 -18 0
v -12 -18 0
v -13 -19 0
v -14 -19 0
v -14 -18 0
v -13 -18 0
v -1 -20 0
v -2 -20 0
v -2 -19 0
v -1 -19 0
v -6 -20 0
v -7 -20 0
v -7 -19 0
v -6 -19 0
v -7 -20 0
v -8 -20 0
v -8 -19 0
v -7 -19 0
v -11 -20 0
v -12 -20 0
v -12 -19 0
v -11 -19 0
v -12 -20 0
v -13 -20 0
v -13 -19 0
v -12 -19 0

# Texture cooridinates (Count = 70)
vt 0.15 0.4722222
vt 0.175 0.4722222
vt 0.175 0.5
vt 0.15 0.5
vt 0.2 0.4722222
vt 0.2 0.5
vt 0.175 0.5277778
vt 0.2 0.5277778
vt 0.2 0.5555556
vt 0.175 0.5555556
vt 0.15 0.5277778
vt 0.35 0.1666667
vt 0.375 0.1666667
vt 0.375 0.1944444
vt 0.35 0.1944444
vt 0.4 0.1666667
vt 0.4 0.1944444
vt 0.425 0.1666667
vt 0.425 0.1944444
vt 0.35 0.1388889
vt 0.375 0.1388889
vt 0.4 0.1388889
vt 0.425 0.1388889
vt 0.35 0.05555556
vt 0.375 0.05555556
vt 0.375 0.08333334
vt 0.35 0.08333334
vt 0.35 0.1111111
vt 0.375 0.1111111
vt 0.4 0.1111111
vt 0.4 0.08333334
vt 0.425 0.1111111
vt 0.25 0.25
vt 0.25 0.2222222
vt 0.275 0.2222222
vt 0.275 0.25
vt 0.425 0.08333334
vt 0.45 0.08333334
vt 0.45 0.1111111
vt 0.4 0.05555556
vt 0.425 0.05555556
vt 0.225 0.25
vt 0.225 0.2222222
vt 0.45 0.05555556
vt 0.45 0.1666667
vt 0.45 0.1944444
vt 0.35 0.6944444
vt 0.375 0.6944444
vt 0.375 0.7222222
vt 0.35 0.7222222
vt 0.325 0.75
vt 0.35 0.75
vt 0.35 0.7777778
vt 0.325 0.7777778
vt 0.375 0.75
vt 0.375 0.7777778
vt 0.275 0.6944444
vt 0.3 0.6944444
vt 0.3 0.7222222
vt 0.275 0.7222222
vt 0.45 0.1388889
vt 0.325 0.7222222
vt 0.325 0.6944444
vt 0.275 0.7777778
vt 0.3 0.7777778
vt 0.3 0.8055556
vt 0.275 0.8055556
vt 0.325 0.8055556
vt 0.3 0.75
vt 0.275 0.75

# Normal
vn 0 0 -1

# Mesh description
g GardenVillage01_mesh_0002

# Faces
f 1/1/1 2/2/1 3/3/1 4/4/1
f 5/2/1 6/5/1 7/6/1 8/3/1
f 9/7/1 10/8/1 11/9/1 12/10/1
f 13/4/1 14/3/1 15/7/1 16/11/1
f 17/2/1 18/5/1 19/6/1 20/3/1
f 21/12/1 22/13/1 23/14/1 24/15/1
f 25/13/1 26/16/1 27/17/1 28/14/1
f 29/16/1 30/18/1 31/19/1 32/17/1
f 33/2/1 34/5/1 35/6/1 36/3/1
f 37/20/1 38/21/1 39/13/1 40/12/1
f 41/21/1 42/22/1 43/16/1 44/13/1
f 45/22/1 46/23/1 47/18/1 48/16/1
f 49/2/1 50/5/1 51/6/1 52/3/1
f 53/20/1 54/21/1 55/13/1 56/12/1
f 57/21/1 58/22/1 59/16/1 60/13/1
f 61/24/1 62/25/1 63/26/1 64/27/1
f 65/13/1 66/16/1 67/17/1 68/14/1
f 69/16/1 70/18/1 71/19/1 72/17/1
f 73/2/1 74/5/1 75/6/1 76/3/1
f 77/28/1 78/29/1 79/21/1 80/20/1
f 81/29/1 82/30/1 83/22/1 84/21/1
f 85/26/1 86/31/1 87/30/1 88/29/1
f 89/27/1 90/26/1 91/29/1 92/28/1
f 93/30/1 94/32/1 95/23/1 96/22/1
f 97/2/1 98/5/1 99/6/1 100/3/1
f 101/28/1 102/29/1 103/21/1 104/20/1
f 105/30/1 106/32/1 107/23/1 108/22/1
f 109/33/1 110/34/1 111/35/1 112/36/1
f 113/37/1 114/38/1 115/39/1 116/32/1
f 117/37/1 118/38/1 119/39/1 120/32/1
f 121/37/1 122/31/1 123/40/1 124/41/1
f 125/2/1 126/5/1 127/6/1 128/3/1
f 129/42/1 130/43/1 131/34/1 132/33/1
f 133/41/1 134/44/1 135/38/1 136/37/1
f 137/41/1 138/44/1 139/38/1 140/37/1
f 141/32/1 142/30/1 143/31/1 144/37/1
f 145/4/1 146/3/1 147/7/1 148/11/1
f 149/12/1 150/13/1 151/14/1 152/15/1
f 153/13/1 154/16/1 155/17/1 156/14/1
f 157/13/1 158/16/1 159/17/1 160/14/1
f 161/16/1 162/18/1 163/19/1 164/17/1
f 165/43/1 166/34/1 167/33/1 168/42/1
f 169/34/1 170/35/1 171/36/1 172/33/1
f 173/28/1 174/29/1 175/21/1 176/20/1
f 177/26/1 178/31/1 179/30/1 180/29/1
f 181/21/1 182/22/1 183/16/1 184/13/1
f 185/22/1 186/23/1 187/18/1 188/16/1
f 189/44/1 190/38/1 191/37/1 192/41/1
f 193/38/1 194/39/1 195/32/1 196/37/1
f 197/20/1 198/21/1 199/13/1 200/12/1
f 201/18/1 202/45/1 203/46/1 204/19/1
f 205/24/1 206/25/1 207/26/1 208/27/1
f 209/13/1 210/16/1 211/17/1 212/14/1
f 213/47/1 214/48/1 215/49/1 216/50/1
f 217/44/1 218/38/1 219/37/1 220/41/1
f 221/38/1 222/39/1 223/32/1 224/37/1
f 225/51/1 226/52/1 227/53/1 228/54/1
f 229/52/1 230/55/1 231/56/1 232/53/1
f 233/57/1 234/58/1 235/59/1 236/60/1
f 237/20/1 238/21/1 239/13/1 240/12/1
f 241/23/1 242/61/1 243/45/1 244/18/1
f 245/21/1 246/22/1 247/16/1 248/13/1
f 249/18/1 250/45/1 251/46/1 252/19/1
f 253/30/1 254/31/1 255/37/1 256/32/1
f 257/31/1 258/40/1 259/41/1 260/37/1
f 261/62/1 262/50/1 263/52/1 264/51/1
f 265/50/1 266/49/1 267/55/1 268/52/1
f 269/28/1 270/29/1 271/21/1 272/20/1
f 273/29/1 274/30/1 275/22/1 276/21/1
f 277/29/1 278/30/1 279/22/1 280/21/1
f 281/29/1 282/30/1 283/22/1 284/21/1
f 285/47/1 286/48/1 287/49/1 288/50/1
f 289/58/1 290/63/1 291/62/1 292/59/1
f 293/57/1 294/58/1 295/59/1 296/60/1
f 297/51/1 298/52/1 299/53/1 300/54/1
f 301/52/1 302/55/1 303/56/1 304/53/1
f 305/64/1 306/65/1 307/66/1 308/67/1
f 309/65/1 310/54/1 311/68/1 312/66/1
f 313/63/1 314/47/1 315/50/1 316/62/1
f 317/60/1 318/59/1 319/69/1 320/70/1
f 321/59/1 322/62/1 323/51/1 324/69/1
f 325/63/1 326/47/1 327/50/1 328/62/1
f 329/47/1 330/48/1 331/49/1 332/50/1
f 333/70/1 334/69/1 335/65/1 336/64/1
f 337/69/1 338/51/1 339/54/1 340/65/1
f 341/62/1 342/50/1 343/52/1 344/51/1
f 345/50/1 346/49/1 347/55/1 348/52/1

