# Tiled2Unity generated file. Do not modify by hand.
# Wavefront file for 'GardenVillage01_mesh_0005.obj'

# Vertices (Count = 8)
v -13 -13 0
v -14 -13 0
v -14 -12 0
v -13 -12 0
v -4 -14 0
v -5 -14 0
v -5 -13 0
v -4 -13 0

# Texture cooridinates (Count = 8)
vt 0.25 0.8333333
vt 0.275 0.8333333
vt 0.275 0.8611111
vt 0.25 0.8611111
vt 0.175 0.8333333
vt 0.2 0.8333333
vt 0.2 0.8611111
vt 0.175 0.8611111

# Normal
vn 0 0 -1

# Mesh description
g GardenVillage01_mesh_0005

# Faces
f 1/1/1 2/2/1 3/3/1 4/4/1
f 5/5/1 6/6/1 7/7/1 8/8/1

